<?xml version="1.0" encoding="UTF-8" standalone="no"?>
<svg
   xmlns:dc="http://purl.org/dc/elements/1.1/"
   xmlns:cc="http://creativecommons.org/ns#"
   xmlns:rdf="http://www.w3.org/1999/02/22-rdf-syntax-ns#"
   xmlns:svg="http://www.w3.org/2000/svg"
   xmlns="http://www.w3.org/2000/svg"
   viewBox="0 0 619.08002 40.426666"
   height="40.426666"
   width="619.08002"
   xml:space="preserve"
   id="svg2"
   version="1.1"><metadata
     id="metadata8"><rdf:RDF><cc:Work
         rdf:about=""><dc:format>image/svg+xml</dc:format><dc:type
           rdf:resource="http://purl.org/dc/dcmitype/StillImage" /><dc:title></dc:title></cc:Work></rdf:RDF></metadata><defs
     id="defs6" /><g
     transform="matrix(1.3333333,0,0,-1.3333333,0,40.426667)"
     id="g10"><g
       transform="scale(0.1)"
       id="g12"><path
         id="path14"
         style="fill:#ed1c24;fill-opacity:1;fill-rule:nonzero;stroke:none"
         d="m 982.859,246.637 c 0.981,-4.59 1.536,-9.485 1.536,-14.375 0,-36.621 -29.7,-66.242 -66.243,-66.242 -36.582,0 -66.265,29.621 -66.265,66.242 0,36.621 29.683,66.297 66.265,66.297 31.653,0 58.071,-22.215 64.707,-51.922" /><path
         id="path16"
         style="fill:#ed1c24;fill-opacity:1;fill-rule:nonzero;stroke:none"
         d="m 982.859,84.4883 c 0.981,-4.6094 1.536,-9.4649 1.536,-14.3945 0,-36.6133 -29.7,-66.32036 -66.243,-66.32036 -36.582,0 -66.265,29.70706 -66.265,66.32036 0,36.6092 29.683,66.2502 66.265,66.2502 31.653,0 58.071,-22.188 64.707,-51.8557" /><path
         id="path18"
         style="fill:#ffffff;fill-opacity:1;fill-rule:nonzero;stroke:none"
         d="M 1185.49,296.348 V 115.98 c 0,-43.1909 16,-63.9878 55.59,-63.9878 39.99,0 55.99,20.3945 55.99,63.9878 v 180.368 h 59.19 V 109.578 C 1356.26,38.3945 1315.07,0 1241.48,0 1167.09,0 1125.9,38.3945 1125.9,109.578 v 186.77 h 59.59" /><path
         id="path20"
         style="fill:#ffffff;fill-opacity:1;fill-rule:nonzero;stroke:none"
         d="m 1406.1,220.359 h 55.59 v -25.195 c 16,20.399 37.59,30.797 64.39,30.797 46.79,0 69.99,-24.395 69.99,-73.188 V 7.99609 h -56.79 V 136.379 c 0,28.793 -8.4,42.391 -32.8,42.391 -26.39,0 -43.59,-16.797 -43.59,-44.797 V 7.99609 H 1406.1 V 220.359" /><path
         id="path22"
         style="fill:#ffffff;fill-opacity:1;fill-rule:nonzero;stroke:none"
         d="m 1641.97,220.359 h 56.79 V 7.99609 h -56.79 z m 0,75.192 h 56.79 v -51.59 h -56.79 v 51.59" /><path
         id="path24"
         style="fill:#ffffff;fill-opacity:1;fill-rule:nonzero;stroke:none"
         d="m 1722.33,220.359 h 62.79 l 43.59,-152.3707 44,152.3707 h 59.98 L 1856.7,7.99609 h -57.98 L 1722.33,220.359" /><path
         id="path26"
         style="fill:#ffffff;fill-opacity:1;fill-rule:nonzero;stroke:none"
         d="m 2080.63,136.379 c -0.8,28.793 -15.6,43.992 -42,43.992 -24.39,0 -39.19,-15.199 -41.59,-43.992 z m 55.99,-63.9923 c -11.6,-44.3945 -48,-71.585919 -98.39,-71.585919 -60.39,0 -99.98,43.191419 -99.98,114.781219 0,69.582 38,112.375 99.18,112.375 64.79,0 101.99,-40.789 101.99,-113.977 0,-4.8 0,-9.601 -0.4,-14.7964 h -141.98 c 1.6,-33.1992 16.4,-50.3945 44,-50.3945 19.19,0 31.59,7.2031 38.79,23.5976 h 56.79" /><path
         id="path28"
         style="fill:#ffffff;fill-opacity:1;fill-rule:nonzero;stroke:none"
         d="m 2174.97,220.359 h 52.79 v -36.39 c 14.79,29.195 33.99,42.394 61.19,42.394 2.8,0 5.6,0 8.4,-0.402 v -57.594 h -18.8 c -30.8,0 -46.79,-15.996 -46.79,-47.988 V 7.99609 h -56.79 V 220.359" /><path
         id="path30"
         style="fill:#ffffff;fill-opacity:1;fill-rule:nonzero;stroke:none"
         d="m 2370.95,77.1875 c 0.8,-21.5977 15.2,-31.9961 44.39,-31.9961 22.8,0 34.8,7.9961 34.8,21.1953 0,18.3985 -18.4,17.1992 -55.99,26.7969 -49.99,12.7964 -73.59,27.9924 -73.59,63.9884 0,42.793 32.79,70.785 87.18,70.785 57.2,0 90.79,-26.789 92.79,-72.387 h -55.19 c -0.8,18 -14,28.399 -37.2,28.399 -21.59,0 -31.99,-6.403 -31.99,-19.598 0,-14.797 17.6,-16.398 57.99,-25.996 49.19,-11.598 73.19,-25.195 73.19,-63.5898 0,-47.9883 -34.4,-73.984419 -99.59,-73.984419 -59.19,0 -93.58,28.394519 -93.58,73.984419 0,0.8007 0,1.6015 0,2.4023 h 56.79" /><path
         id="path32"
         style="fill:#ffffff;fill-opacity:1;fill-rule:nonzero;stroke:none"
         d="m 2543.04,220.359 h 56.79 V 7.99609 h -56.79 z m 0,75.192 h 56.79 v -51.59 h -56.79 v 51.59" /><path
         id="path34"
         style="fill:#ffffff;fill-opacity:1;fill-rule:nonzero;stroke:none"
         d="m 2710.42,5.19922 c -46.79,0 -56.79,15.99608 -56.79,60.39058 V 180.371 h -27.99 v 39.988 h 27.99 v 57.996 h 56.39 v -57.996 h 32.8 v -39.988 h -32.8 V 62.7891 c 0,-11.1993 3.6,-13.6016 18.8,-13.6016 h 14 V 6.39453 c -15.6,-0.39844 -26.4,-1.19531 -32.4,-1.19531" /><path
         id="path36"
         style="fill:#ffffff;fill-opacity:1;fill-rule:nonzero;stroke:none"
         d="m 2901.37,136.379 c -0.8,28.793 -15.59,43.992 -41.99,43.992 -24.4,0 -39.2,-15.199 -41.6,-43.992 z m 55.99,-63.9923 c -11.6,-44.3945 -47.99,-71.585919 -98.38,-71.585919 -60.39,0 -99.99,43.191419 -99.99,114.781219 0,69.582 38,112.375 99.19,112.375 64.78,0 101.98,-40.789 101.98,-113.977 0,-4.8 0,-9.601 -0.4,-14.7964 h -141.98 c 1.6,-33.1992 16.4,-50.3945 43.99,-50.3945 19.2,0 31.6,7.2031 38.8,23.5976 h 56.79" /><path
         id="path38"
         style="fill:#ffffff;fill-opacity:1;fill-rule:nonzero;stroke:none"
         d="m 3057.18,5.19922 c -46.79,0 -56.79,15.99608 -56.79,60.39058 V 180.371 h -27.99 v 39.988 h 27.99 v 57.996 h 56.39 v -57.996 h 32.8 v -39.988 h -32.8 V 62.7891 c 0,-11.1993 3.6,-13.6016 18.8,-13.6016 h 14 V 6.39453 c -15.6,-0.39844 -26.4,-1.19531 -32.4,-1.19531" /><path
         id="path40"
         style="fill:#ffffff;fill-opacity:1;fill-rule:nonzero;stroke:none"
         d="m 3248.13,136.379 c -0.8,28.793 -15.6,43.992 -41.99,43.992 -24.41,0 -39.2,-15.199 -41.6,-43.992 z m 55.99,-63.9923 c -11.61,-44.3945 -47.99,-71.585919 -98.38,-71.585919 -60.39,0 -99.99,43.191419 -99.99,114.781219 0,69.582 38,112.375 99.19,112.375 64.78,0 101.98,-40.789 101.98,-113.977 0,-4.8 0,-9.601 -0.4,-14.7964 h -141.98 c 1.6,-33.1992 16.4,-50.3945 43.99,-50.3945 19.2,0 31.6,7.2031 38.8,23.5976 h 56.79" /><path
         id="path42"
         style="fill:#ffffff;fill-opacity:1;fill-rule:nonzero;stroke:none"
         d="m 3403.94,5.19922 c -46.8,0 -56.8,15.99608 -56.8,60.39058 V 180.371 h -27.98 v 39.988 h 27.98 v 57.996 h 56.4 v -57.996 h 32.79 v -39.988 h -32.79 V 62.7891 c 0,-11.1993 3.59,-13.6016 18.8,-13.6016 h 13.99 V 6.39453 c -15.59,-0.39844 -26.39,-1.19531 -32.39,-1.19531" /><path
         id="path44"
         style="fill:#ffffff;fill-opacity:1;fill-rule:nonzero;stroke:none"
         d="m 3583.95,220.359 h 56.79 V 7.99609 h -56.79 z m 0,75.192 h 56.79 v -51.59 h -56.79 v 51.59" /><path
         id="path46"
         style="fill:#ffffff;fill-opacity:1;fill-rule:nonzero;stroke:none"
         d="m 3937.93,51.5898 c 50.4,0 80.79,35.9922 80.79,99.9802 0,63.993 -30.39,99.989 -80.79,99.989 -50,0 -79.99,-35.996 -79.99,-99.989 0,-63.988 29.99,-99.9802 79.99,-99.9802 z m 0,251.5582 c 85.98,0 140.78,-58.789 140.78,-151.578 C 4078.71,58.7891 4023.91,0 3937.93,0 c -85.98,0 -140.38,58.7891 -140.38,151.57 0,92.789 54.4,151.578 140.38,151.578" /><path
         id="path48"
         style="fill:#ffffff;fill-opacity:1;fill-rule:nonzero;stroke:none"
         d="m 4162.42,77.1875 c 0.8,-21.5977 15.19,-31.9961 44.39,-31.9961 22.79,0 34.8,7.9961 34.8,21.1953 0,18.3985 -18.4,17.1992 -56,26.7969 -49.99,12.7964 -73.58,27.9924 -73.58,63.9884 0,42.793 32.79,70.785 87.18,70.785 57.19,0 90.79,-26.789 92.79,-72.387 h -55.2 c -0.8,18 -13.99,28.399 -37.2,28.399 -21.59,0 -31.99,-6.403 -31.99,-19.598 0,-14.797 17.6,-16.398 57.99,-25.996 49.2,-11.598 73.19,-25.195 73.19,-63.5898 0,-47.9883 -34.39,-73.984419 -99.58,-73.984419 -59.2,0 -93.59,28.394519 -93.59,73.984419 0,0.8007 0,1.6015 0,2.4023 h 56.8" /><path
         id="path50"
         style="fill:#ffffff;fill-opacity:1;fill-rule:nonzero;stroke:none"
         d="m 4334.91,295.551 h 56.78 V 7.99609 h -56.78 V 295.551" /><path
         id="path52"
         style="fill:#ffffff;fill-opacity:1;fill-rule:nonzero;stroke:none"
         d="m 4535.49,48.3945 c 31.59,0 49.59,23.5938 49.59,65.9845 0,42.394 -18,65.59 -49.59,65.59 -31.6,0 -49.99,-23.196 -49.99,-65.59 0,-42.3907 18.39,-65.9845 49.99,-65.9845 z m 0,179.5625 c 66.79,0 107.58,-42.793 107.58,-113.578 0,-70.7852 -40.79,-113.578219 -107.58,-113.578219 -66.78,0 -107.58,42.793019 -107.58,113.578219 0,70.785 40.8,113.578 107.58,113.578" /><path
         id="path54"
         style="fill:#ffffff;fill-opacity:1;fill-rule:nonzero;stroke:none"
         d="m 261.438,110.953 c 0,-19.7655 -2.336,-36.5038 -6.997,-50.2264 C 249.758,46.9883 242.637,35.875 233.027,27.3672 223.43,18.832 211.426,12.6914 196.992,8.84375 182.605,5.01563 165.508,3.10156 145.762,3.10156 c -16.77,0 -32.071,1.82422 -45.9182,5.52735 -13.875,3.71089 -25.75,9.68749 -35.625,17.91799 -9.8829,8.2226 -17.5665,18.9258 -23.0469,32.082 -5.5,13.2109 -8.2422,29.4141 -8.2422,48.6011 V 277.68 L 0,283.852 v 12.375 H 102.09 V 283.852 L 69.1602,277.68 V 93.6563 c 0,-22.7735 7.1367,-40.6915 21.4062,-53.75 14.2776,-13.0157 35.2616,-19.5391 62.9966,-19.5391 29.101,0 50.148,6.7461 63.195,20.2031 13.039,13.418 19.558,34.6797 19.558,63.7817 V 277.68 l -32.925,6.172 v 12.375 h 90.972 V 283.852 L 261.438,277.68 V 110.953" /><path
         id="path56"
         style="fill:#ffffff;fill-opacity:1;fill-rule:nonzero;stroke:none"
         d="M 385.496,185.074 V 26.5469 L 418.43,20.3672 V 8.01172 H 320.852 V 20.3672 l 32.937,6.1797 V 189.176 l -32.937,12.344 v 7 l 64.644,10.304 1.645,-0.851 -1.645,-32.899" /><path
         id="path58"
         style="fill:#ffffff;fill-opacity:1;fill-rule:nonzero;stroke:none"
         d="m 661.973,251.344 c -16.477,21.679 -39.668,32.508 -69.578,32.508 -30.481,0 -53.918,-10.477 -70.415,-31.465 -16.472,-21.024 -24.683,-54.012 -24.683,-99.032 0,-45.558 8.074,-79.1323 24.273,-100.6558 16.203,-21.5625 39.516,-32.332 70,-32.332 30.473,0 53.926,10.5469 70.403,31.707 16.465,21.1328 24.699,54.0628 24.699,98.8088 0,45.293 -8.234,78.781 -24.699,100.461 z M 691.609,41.3438 C 667.727,15.8438 633.84,3.10156 589.922,3.10156 c -41.992,0 -74.746,12.39064 -98.203,37.23434 -23.465,24.836 -35.196,61.2691 -35.196,109.3091 0,24.98 3.211,46.941 9.676,65.878 6.446,18.934 15.571,34.727 27.387,47.352 11.785,12.648 26.141,22.148 43.016,28.594 16.882,6.457 35.753,9.699 56.601,9.699 20.879,0 39.59,-3.176 56.199,-9.465 16.606,-6.328 30.688,-15.711 42.207,-28.223 11.516,-12.5 20.383,-27.917 26.567,-46.308 6.172,-18.399 9.246,-39.688 9.246,-63.817 0,-49.121 -11.926,-86.4839 -35.813,-112.0112" /><path
         id="path60"
         style="fill:#ffffff;fill-opacity:1;fill-rule:nonzero;stroke:none"
         d="m 349.441,279.379 c 0,-6.016 1.997,-11.035 5.969,-15.008 3.977,-3.984 8.992,-5.969 15.02,-5.969 6.047,0 11.133,1.985 15.246,5.969 4.121,3.973 6.179,8.992 6.179,15.008 0,6.035 -2.058,11.133 -6.179,15.254 -4.113,4.14 -9.199,6.164 -15.246,6.164 -6.028,0 -11.043,-2.024 -15.02,-6.164 -3.972,-4.121 -5.969,-9.219 -5.969,-15.254" /></g></g></svg>